<svg width="120" height="120" viewBox="0 0 120 120" xmlns="http://www.w3.org/2000/svg">
  <defs>
    <linearGradient id="catGas" x1="0%" y1="0%" x2="100%" y2="100%">
      <stop offset="0%" style="stop-color:#E8A87C;stop-opacity:1" />
      <stop offset="100%" style="stop-color:#D4956A;stop-opacity:1" />
    </linearGradient>
  </defs>
  
  <!-- Background -->
  <circle cx="60" cy="60" r="55" fill="#FDF8F3"/>
  <circle cx="60" cy="60" r="50" fill="url(#catGas)" opacity="0.15"/>
  
  <!-- Wind/gas swirl icon -->
  <path d="M45 50 Q55 45 60 50 Q65 55 60 60 Q55 65 50 60" stroke="url(#catGas)" stroke-width="4" stroke-linecap="round" fill="none"/>
  <path d="M55 60 Q65 55 70 60 Q75 65 70 70 Q65 75 60 70" stroke="url(#catGas)" stroke-width="4" stroke-linecap="round" fill="none"/>
  <path d="M40 65 Q50 60 55 65 Q60 70 55 75 Q50 80 45 75" stroke="url(#catGas)" stroke-width="4" stroke-linecap="round" fill="none" opacity="0.7"/>
  
  <!-- Small bubbles/dots -->
  <circle cx="75" cy="45" r="3" fill="url(#catGas)" opacity="0.6"/>
  <circle cx="80" cy="52" r="2" fill="url(#catGas)" opacity="0.6"/>
  <circle cx="35" cy="55" r="2" fill="url(#catGas)" opacity="0.6"/>
</svg>
