<svg width="400" height="400" viewBox="0 0 400 400" xmlns="http://www.w3.org/2000/svg">
  <defs>
    <linearGradient id="bg1" x1="0%" y1="0%" x2="100%" y2="100%">
      <stop offset="0%" style="stop-color:#FDF8F3;stop-opacity:1" />
      <stop offset="100%" style="stop-color:#f5ebe0;stop-opacity:1" />
    </linearGradient>
  </defs>
  
  <!-- Background circle -->
  <circle cx="200" cy="200" r="180" fill="url(#bg1)" opacity="0.5"/>
  
  <!-- Baby body (on back) -->
  <ellipse cx="200" cy="220" rx="60" ry="80" fill="#E8A87C" opacity="0.3"/>
  
  <!-- Head -->
  <circle cx="200" cy="150" r="35" fill="#E8A87C"/>
  
  <!-- Hair -->
  <path d="M170 130 Q200 110 230 130 Q235 140 230 145 Q200 125 170 145 Q165 140 170 130" fill="#8B7355"/>
  
  <!-- Face -->
  <circle cx="190" cy="145" r="3" fill="#5D4E37"/>
  <circle cx="210" cy="145" r="3" fill="#5D4E37"/>
  <path d="M195 155 Q200 160 205 155" stroke="#5D4E37" stroke-width="2" fill="none"/>
  
  <!-- Body -->
  <rect x="175" y="180" width="50" height="70" rx="25" fill="#85C1A5"/>
  
  <!-- Arms -->
  <path d="M175 190 Q150 200 145 220" stroke="#E8A87C" stroke-width="12" stroke-linecap="round" fill="none"/>
  <path d="M225 190 Q250 200 255 220" stroke="#E8A87C" stroke-width="12" stroke-linecap="round" fill="none"/>
  
  <!-- Legs (cycling motion) -->
  <path d="M185 250 Q170 270 160 260 Q150 250 155 240" stroke="#E8A87C" stroke-width="14" stroke-linecap="round" fill="none"/>
  <path d="M215 250 Q230 270 240 260 Q250 250 245 240" stroke="#E8A87C" stroke-width="14" stroke-linecap="round" fill="none"/>
  
  <!-- Motion lines -->
  <path d="M140 250 Q130 260 140 270" stroke="#85C1A5" stroke-width="3" stroke-linecap="round" fill="none" opacity="0.6"/>
  <path d="M260 250 Q270 260 260 270" stroke="#85C1A5" stroke-width="3" stroke-linecap="round" fill="none" opacity="0.6"/>
  <path d="M135 260 Q125 270 135 280" stroke="#85C1A5" stroke-width="3" stroke-linecap="round" fill="none" opacity="0.6"/>
  <path d="M265 260 Q275 270 265 280" stroke="#85C1A5" stroke-width="3" stroke-linecap="round" fill="none" opacity="0.6"/>
</svg>
